{
 "cells": [
  {
   "cell_type": "code",
   "execution_count": 8,
   "metadata": {},
   "outputs": [
    {
     "name": "stderr",
     "output_type": "stream",
     "text": [
      "ffmpeg: /home/sigfred/miniconda3/envs/tf/lib/libncursesw.so.6: no version information available (required by /lib/x86_64-linux-gnu/libcaca.so.0)\n",
      "ffmpeg: /home/sigfred/miniconda3/envs/tf/lib/libncursesw.so.6: no version information available (required by /lib/x86_64-linux-gnu/libcaca.so.0)\n",
      "ffmpeg: /home/sigfred/miniconda3/envs/tf/lib/libtinfo.so.6: no version information available (required by /lib/x86_64-linux-gnu/libcaca.so.0)\n",
      "ffmpeg version 4.4.2-0ubuntu0.22.04.1 Copyright (c) 2000-2021 the FFmpeg developers\n",
      "  built with gcc 11 (Ubuntu 11.2.0-19ubuntu1)\n",
      "  configuration: --prefix=/usr --extra-version=0ubuntu0.22.04.1 --toolchain=hardened --libdir=/usr/lib/x86_64-linux-gnu --incdir=/usr/include/x86_64-linux-gnu --arch=amd64 --enable-gpl --disable-stripping --enable-gnutls --enable-ladspa --enable-libaom --enable-libass --enable-libbluray --enable-libbs2b --enable-libcaca --enable-libcdio --enable-libcodec2 --enable-libdav1d --enable-libflite --enable-libfontconfig --enable-libfreetype --enable-libfribidi --enable-libgme --enable-libgsm --enable-libjack --enable-libmp3lame --enable-libmysofa --enable-libopenjpeg --enable-libopenmpt --enable-libopus --enable-libpulse --enable-librabbitmq --enable-librubberband --enable-libshine --enable-libsnappy --enable-libsoxr --enable-libspeex --enable-libsrt --enable-libssh --enable-libtheora --enable-libtwolame --enable-libvidstab --enable-libvorbis --enable-libvpx --enable-libwebp --enable-libx265 --enable-libxml2 --enable-libxvid --enable-libzimg --enable-libzmq --enable-libzvbi --enable-lv2 --enable-omx --enable-openal --enable-opencl --enable-opengl --enable-sdl2 --enable-pocketsphinx --enable-librsvg --enable-libmfx --enable-libdc1394 --enable-libdrm --enable-libiec61883 --enable-chromaprint --enable-frei0r --enable-libx264 --enable-shared\n",
      "  WARNING: library configuration mismatch\n",
      "  avcodec     configuration: --prefix=/usr --extra-version=0ubuntu0.22.04.1 --toolchain=hardened --libdir=/usr/lib/x86_64-linux-gnu --incdir=/usr/include/x86_64-linux-gnu --arch=amd64 --enable-gpl --disable-stripping --enable-gnutls --enable-ladspa --enable-libaom --enable-libass --enable-libbluray --enable-libbs2b --enable-libcaca --enable-libcdio --enable-libcodec2 --enable-libdav1d --enable-libflite --enable-libfontconfig --enable-libfreetype --enable-libfribidi --enable-libgme --enable-libgsm --enable-libjack --enable-libmp3lame --enable-libmysofa --enable-libopenjpeg --enable-libopenmpt --enable-libopus --enable-libpulse --enable-librabbitmq --enable-librubberband --enable-libshine --enable-libsnappy --enable-libsoxr --enable-libspeex --enable-libsrt --enable-libssh --enable-libtheora --enable-libtwolame --enable-libvidstab --enable-libvorbis --enable-libvpx --enable-libwebp --enable-libx265 --enable-libxml2 --enable-libxvid --enable-libzimg --enable-libzmq --enable-libzvbi --enable-lv2 --enable-omx --enable-openal --enable-opencl --enable-opengl --enable-sdl2 --enable-pocketsphinx --enable-librsvg --enable-libmfx --enable-libdc1394 --enable-libdrm --enable-libiec61883 --enable-chromaprint --enable-frei0r --enable-libx264 --enable-shared --enable-version3 --disable-doc --disable-programs --enable-libaribb24 --enable-libopencore_amrnb --enable-libopencore_amrwb --enable-libtesseract --enable-libvo_amrwbenc --enable-libsmbclient\n",
      "  libavutil      56. 70.100 / 56. 70.100\n",
      "  libavcodec     58.134.100 / 58.134.100\n",
      "  libavformat    58. 76.100 / 58. 76.100\n",
      "  libavdevice    58. 13.100 / 58. 13.100\n",
      "  libavfilter     7.110.100 /  7.110.100\n",
      "  libswscale      5.  9.100 /  5.  9.100\n",
      "  libswresample   3.  9.100 /  3.  9.100\n",
      "  libpostproc    55.  9.100 / 55.  9.100\n",
      "Input #0, mov,mp4,m4a,3gp,3g2,mj2, from 'origVid.mp4':\n",
      "  Metadata:\n",
      "    major_brand     : mp42\n",
      "    minor_version   : 0\n",
      "    compatible_brands: isommp42\n",
      "    creation_time   : 2023-10-22T08:26:48.000000Z\n",
      "    com.android.version: 13\n",
      "  Duration: 00:00:05.40, start: 0.000000, bitrate: 17141 kb/s\n",
      "  Stream #0:0(eng): Video: h264 (High) (avc1 / 0x31637661), yuv420p(tv, bt709), 1440x1440, 16894 kb/s, 29.83 fps, 90k tbr, 90k tbn, 180k tbc (default)\n",
      "    Metadata:\n",
      "      rotate          : 270\n",
      "      creation_time   : 2023-10-22T08:26:48.000000Z\n",
      "      handler_name    : VideoHandle\n",
      "      vendor_id       : [0][0][0][0]\n",
      "    Side data:\n",
      "      displaymatrix: rotation of 90.00 degrees\n",
      "  Stream #0:1(eng): Audio: aac (LC) (mp4a / 0x6134706D), 48000 Hz, stereo, fltp, 256 kb/s (default)\n",
      "    Metadata:\n",
      "      creation_time   : 2023-10-22T08:26:48.000000Z\n",
      "      handler_name    : SoundHandle\n",
      "      vendor_id       : [0][0][0][0]\n",
      "Input #1, lavfi, from 'anullsrc=r=44100:cl=stereo':\n",
      "  Duration: N/A, start: 0.000000, bitrate: 705 kb/s\n",
      "  Stream #1:0: Audio: pcm_u8, 44100 Hz, stereo, u8, 705 kb/s\n",
      "Stream mapping:\n",
      "  Stream #0:0 (h264) -> concat:in0:v0\n",
      "  Stream #1:0 (pcm_u8) -> concat:in0:a0\n",
      "  concat:out:a0 -> Stream #0:0 (aac)\n",
      "  concat:out:v0 -> Stream #0:1 (libx264)\n",
      "Press [q] to stop, [?] for help\n",
      "[libx264 @ 0x556fecb0e180] using cpu capabilities: MMX2 SSE2Fast SSSE3 SSE4.2 AVX FMA3 BMI2 AVX2\n",
      "[libx264 @ 0x556fecb0e180] profile High, level 4.0, 4:2:0, 8-bit\n",
      "[libx264 @ 0x556fecb0e180] 264 - core 163 r3060 5db6aa6 - H.264/MPEG-4 AVC codec - Copyleft 2003-2021 - http://www.videolan.org/x264.html - options: cabac=1 ref=3 deblock=1:0:0 analyse=0x3:0x113 me=hex subme=7 psy=1 psy_rd=1.00:0.00 mixed_ref=1 me_range=16 chroma_me=1 trellis=1 8x8dct=1 cqm=0 deadzone=21,11 fast_pskip=1 chroma_qp_offset=-2 threads=18 lookahead_threads=3 sliced_threads=0 nr=0 decimate=1 interlaced=0 bluray_compat=0 constrained_intra=0 bframes=3 b_pyramid=2 b_adapt=1 b_bias=0 direct=1 weightb=1 open_gop=0 weightp=2 keyint=250 keyint_min=25 scenecut=40 intra_refresh=0 rc_lookahead=40 rc=crf mbtree=1 crf=23.0 qcomp=0.60 qpmin=0 qpmax=69 qpstep=4 ip_ratio=1.40 aq=1:1.00\n",
      "Output #0, mp4, to 'output.mp4_first.mp4':\n",
      "  Metadata:\n",
      "    major_brand     : mp42\n",
      "    minor_version   : 0\n",
      "    compatible_brands: isommp42\n",
      "    com.android.version: 13\n",
      "    encoder         : Lavf58.76.100\n",
      "  Stream #0:0: Audio: aac (LC) (mp4a / 0x6134706D), 44100 Hz, stereo, fltp, 128 kb/s (default)\n",
      "    Metadata:\n",
      "      encoder         : Lavc58.134.100 aac\n",
      "  Stream #0:1: Video: h264 (avc1 / 0x31637661), yuv420p(tv, bt709, progressive), 1440x1440, q=2-31, 29.83 fps, 2898k tbn (default)\n",
      "    Metadata:\n",
      "      encoder         : Lavc58.134.100 libx264\n",
      "    Side data:\n",
      "      cpb: bitrate max/min/avg: 0/0/0 buffer size: 0 vbv_delay: N/A\n",
      "frame=   90 fps= 37 q=-1.0 Lsize=    6115kB time=00:00:02.97 bitrate=16854.9kbits/s dup=1 drop=0 speed=1.21x    \n",
      "video:6110kB audio:1kB subtitle:0kB other streams:0kB global headers:0kB muxing overhead: 0.075017%\n",
      "[aac @ 0x556feca7a080] Qavg: 65536.000\n",
      "[libx264 @ 0x556fecb0e180] frame I:1     Avg QP:25.69  size:164710\n",
      "[libx264 @ 0x556fecb0e180] frame P:23    Avg QP:24.97  size: 90601\n",
      "[libx264 @ 0x556fecb0e180] frame B:66    Avg QP:27.68  size: 60715\n",
      "[libx264 @ 0x556fecb0e180] consecutive B-frames:  1.1%  2.2%  3.3% 93.3%\n",
      "[libx264 @ 0x556fecb0e180] mb I  I16..4:  2.6% 76.6% 20.8%\n",
      "[libx264 @ 0x556fecb0e180] mb P  I16..4:  1.7% 31.9%  1.0%  P16..4: 34.6% 13.7%  5.0%  0.0%  0.0%    skip:12.1%\n",
      "[libx264 @ 0x556fecb0e180] mb B  I16..4:  0.1%  9.3%  0.1%  B16..8: 45.2% 11.3%  2.3%  direct: 7.3%  skip:24.4%  L0:56.6% L1:36.3% BI: 7.2%\n",
      "[libx264 @ 0x556fecb0e180] 8x8 transform intra:93.3% inter:78.2%\n",
      "[libx264 @ 0x556fecb0e180] coded y,uvDC,uvAC intra: 86.9% 33.6% 2.0% inter: 42.5% 12.8% 0.3%\n",
      "[libx264 @ 0x556fecb0e180] i16 v,h,dc,p: 34% 26% 19% 22%\n",
      "[libx264 @ 0x556fecb0e180] i8 v,h,dc,ddl,ddr,vr,hd,vl,hu: 11% 10% 36%  6%  7%  6%  7%  7%  9%\n",
      "[libx264 @ 0x556fecb0e180] i4 v,h,dc,ddl,ddr,vr,hd,vl,hu: 15% 12% 22% 10%  9%  8%  8%  8%  8%\n",
      "[libx264 @ 0x556fecb0e180] i8c dc,h,v,p: 68% 16% 14%  3%\n",
      "[libx264 @ 0x556fecb0e180] Weighted P-Frames: Y:0.0% UV:0.0%\n",
      "[libx264 @ 0x556fecb0e180] ref P L0: 49.1% 10.8% 26.6% 13.4%\n",
      "[libx264 @ 0x556fecb0e180] ref B L0: 87.5%  8.9%  3.6%\n",
      "[libx264 @ 0x556fecb0e180] ref B L1: 95.6%  4.4%\n",
      "[libx264 @ 0x556fecb0e180] kb/s:16586.03\n",
      "ffmpeg: /home/sigfred/miniconda3/envs/tf/lib/libncursesw.so.6: no version information available (required by /lib/x86_64-linux-gnu/libcaca.so.0)\n",
      "ffmpeg: /home/sigfred/miniconda3/envs/tf/lib/libncursesw.so.6: no version information available (required by /lib/x86_64-linux-gnu/libcaca.so.0)\n",
      "ffmpeg: /home/sigfred/miniconda3/envs/tf/lib/libtinfo.so.6: no version information available (required by /lib/x86_64-linux-gnu/libcaca.so.0)\n",
      "ffmpeg version 4.4.2-0ubuntu0.22.04.1 Copyright (c) 2000-2021 the FFmpeg developers\n",
      "  built with gcc 11 (Ubuntu 11.2.0-19ubuntu1)\n",
      "  configuration: --prefix=/usr --extra-version=0ubuntu0.22.04.1 --toolchain=hardened --libdir=/usr/lib/x86_64-linux-gnu --incdir=/usr/include/x86_64-linux-gnu --arch=amd64 --enable-gpl --disable-stripping --enable-gnutls --enable-ladspa --enable-libaom --enable-libass --enable-libbluray --enable-libbs2b --enable-libcaca --enable-libcdio --enable-libcodec2 --enable-libdav1d --enable-libflite --enable-libfontconfig --enable-libfreetype --enable-libfribidi --enable-libgme --enable-libgsm --enable-libjack --enable-libmp3lame --enable-libmysofa --enable-libopenjpeg --enable-libopenmpt --enable-libopus --enable-libpulse --enable-librabbitmq --enable-librubberband --enable-libshine --enable-libsnappy --enable-libsoxr --enable-libspeex --enable-libsrt --enable-libssh --enable-libtheora --enable-libtwolame --enable-libvidstab --enable-libvorbis --enable-libvpx --enable-libwebp --enable-libx265 --enable-libxml2 --enable-libxvid --enable-libzimg --enable-libzmq --enable-libzvbi --enable-lv2 --enable-omx --enable-openal --enable-opencl --enable-opengl --enable-sdl2 --enable-pocketsphinx --enable-librsvg --enable-libmfx --enable-libdc1394 --enable-libdrm --enable-libiec61883 --enable-chromaprint --enable-frei0r --enable-libx264 --enable-shared\n",
      "  WARNING: library configuration mismatch\n",
      "  avcodec     configuration: --prefix=/usr --extra-version=0ubuntu0.22.04.1 --toolchain=hardened --libdir=/usr/lib/x86_64-linux-gnu --incdir=/usr/include/x86_64-linux-gnu --arch=amd64 --enable-gpl --disable-stripping --enable-gnutls --enable-ladspa --enable-libaom --enable-libass --enable-libbluray --enable-libbs2b --enable-libcaca --enable-libcdio --enable-libcodec2 --enable-libdav1d --enable-libflite --enable-libfontconfig --enable-libfreetype --enable-libfribidi --enable-libgme --enable-libgsm --enable-libjack --enable-libmp3lame --enable-libmysofa --enable-libopenjpeg --enable-libopenmpt --enable-libopus --enable-libpulse --enable-librabbitmq --enable-librubberband --enable-libshine --enable-libsnappy --enable-libsoxr --enable-libspeex --enable-libsrt --enable-libssh --enable-libtheora --enable-libtwolame --enable-libvidstab --enable-libvorbis --enable-libvpx --enable-libwebp --enable-libx265 --enable-libxml2 --enable-libxvid --enable-libzimg --enable-libzmq --enable-libzvbi --enable-lv2 --enable-omx --enable-openal --enable-opencl --enable-opengl --enable-sdl2 --enable-pocketsphinx --enable-librsvg --enable-libmfx --enable-libdc1394 --enable-libdrm --enable-libiec61883 --enable-chromaprint --enable-frei0r --enable-libx264 --enable-shared --enable-version3 --disable-doc --disable-programs --enable-libaribb24 --enable-libopencore_amrnb --enable-libopencore_amrwb --enable-libtesseract --enable-libvo_amrwbenc --enable-libsmbclient\n",
      "  libavutil      56. 70.100 / 56. 70.100\n",
      "  libavcodec     58.134.100 / 58.134.100\n",
      "  libavformat    58. 76.100 / 58. 76.100\n",
      "  libavdevice    58. 13.100 / 58. 13.100\n",
      "  libavfilter     7.110.100 /  7.110.100\n",
      "  libswscale      5.  9.100 /  5.  9.100\n",
      "  libswresample   3.  9.100 /  3.  9.100\n",
      "  libpostproc    55.  9.100 / 55.  9.100\n",
      "Input #0, mov,mp4,m4a,3gp,3g2,mj2, from 'origVid.mp4':\n",
      "  Metadata:\n",
      "    major_brand     : mp42\n",
      "    minor_version   : 0\n",
      "    compatible_brands: isommp42\n",
      "    creation_time   : 2023-10-22T08:26:48.000000Z\n",
      "    com.android.version: 13\n",
      "  Duration: 00:00:05.40, start: 0.000000, bitrate: 17141 kb/s\n",
      "  Stream #0:0(eng): Video: h264 (High) (avc1 / 0x31637661), yuv420p(tv, bt709), 1440x1440, 16894 kb/s, 29.83 fps, 90k tbr, 90k tbn, 180k tbc (default)\n",
      "    Metadata:\n",
      "      rotate          : 270\n",
      "      creation_time   : 2023-10-22T08:26:48.000000Z\n",
      "      handler_name    : VideoHandle\n",
      "      vendor_id       : [0][0][0][0]\n",
      "    Side data:\n",
      "      displaymatrix: rotation of 90.00 degrees\n",
      "  Stream #0:1(eng): Audio: aac (LC) (mp4a / 0x6134706D), 48000 Hz, stereo, fltp, 256 kb/s (default)\n",
      "    Metadata:\n",
      "      creation_time   : 2023-10-22T08:26:48.000000Z\n",
      "      handler_name    : SoundHandle\n",
      "      vendor_id       : [0][0][0][0]\n",
      "Input #1, lavfi, from 'anullsrc=r=44100:cl=stereo':\n",
      "  Duration: N/A, start: 0.000000, bitrate: 705 kb/s\n",
      "  Stream #1:0: Audio: pcm_u8, 44100 Hz, stereo, u8, 705 kb/s\n",
      "Stream mapping:\n",
      "  Stream #0:0 (h264) -> concat:in0:v0\n",
      "  Stream #1:0 (pcm_u8) -> concat:in0:a0\n",
      "  concat:out:a0 -> Stream #0:0 (aac)\n",
      "  concat:out:v0 -> Stream #0:1 (libx264)\n",
      "Press [q] to stop, [?] for help\n",
      "[libx264 @ 0x5573cd31dbc0] using cpu capabilities: MMX2 SSE2Fast SSSE3 SSE4.2 AVX FMA3 BMI2 AVX2\n",
      "[libx264 @ 0x5573cd31dbc0] profile High, level 4.0, 4:2:0, 8-bit\n",
      "[libx264 @ 0x5573cd31dbc0] 264 - core 163 r3060 5db6aa6 - H.264/MPEG-4 AVC codec - Copyleft 2003-2021 - http://www.videolan.org/x264.html - options: cabac=1 ref=3 deblock=1:0:0 analyse=0x3:0x113 me=hex subme=7 psy=1 psy_rd=1.00:0.00 mixed_ref=1 me_range=16 chroma_me=1 trellis=1 8x8dct=1 cqm=0 deadzone=21,11 fast_pskip=1 chroma_qp_offset=-2 threads=18 lookahead_threads=3 sliced_threads=0 nr=0 decimate=1 interlaced=0 bluray_compat=0 constrained_intra=0 bframes=3 b_pyramid=2 b_adapt=1 b_bias=0 direct=1 weightb=1 open_gop=0 weightp=2 keyint=250 keyint_min=25 scenecut=40 intra_refresh=0 rc_lookahead=40 rc=crf mbtree=1 crf=23.0 qcomp=0.60 qpmin=0 qpmax=69 qpstep=4 ip_ratio=1.40 aq=1:1.00\n",
      "Output #0, mp4, to 'output.mp4_second.mp4':\n",
      "  Metadata:\n",
      "    major_brand     : mp42\n",
      "    minor_version   : 0\n",
      "    compatible_brands: isommp42\n",
      "    com.android.version: 13\n",
      "    encoder         : Lavf58.76.100\n",
      "  Stream #0:0: Audio: aac (LC) (mp4a / 0x6134706D), 44100 Hz, stereo, fltp, 128 kb/s (default)\n",
      "    Metadata:\n",
      "      encoder         : Lavc58.134.100 aac\n",
      "  Stream #0:1: Video: h264 (avc1 / 0x31637661), yuv420p(tv, bt709, progressive), 1440x1440, q=2-31, 29.83 fps, 2898k tbn (default)\n",
      "    Metadata:\n",
      "      encoder         : Lavc58.134.100 libx264\n",
      "    Side data:\n",
      "      cpb: bitrate max/min/avg: 0/0/0 buffer size: 0 vbv_delay: N/A\n",
      "frame=   73 fps= 40 q=-1.0 Lsize=    4929kB time=00:00:02.41 bitrate=16721.8kbits/s dup=1 drop=0 speed=1.31x    \n",
      "video:4925kB audio:1kB subtitle:0kB other streams:0kB global headers:0kB muxing overhead: 0.081014%\n",
      "[aac @ 0x5573cd321980] Qavg: 65536.000\n",
      "[libx264 @ 0x5573cd31dbc0] frame I:1     Avg QP:22.95  size:115816\n",
      "[libx264 @ 0x5573cd31dbc0] frame P:18    Avg QP:24.93  size: 92086\n",
      "[libx264 @ 0x5573cd31dbc0] frame B:54    Avg QP:27.55  size: 60534\n",
      "[libx264 @ 0x5573cd31dbc0] consecutive B-frames:  1.4%  0.0%  0.0% 98.6%\n",
      "[libx264 @ 0x5573cd31dbc0] mb I  I16..4: 15.1% 78.0%  6.9%\n",
      "[libx264 @ 0x5573cd31dbc0] mb P  I16..4:  2.1% 33.1%  1.0%  P16..4: 31.5% 13.4%  4.9%  0.0%  0.0%    skip:14.0%\n",
      "[libx264 @ 0x5573cd31dbc0] mb B  I16..4:  0.2%  9.5%  0.1%  B16..8: 42.0% 11.1%  2.4%  direct: 7.1%  skip:27.5%  L0:56.8% L1:35.1% BI: 8.2%\n",
      "[libx264 @ 0x5573cd31dbc0] 8x8 transform intra:92.6% inter:78.2%\n",
      "[libx264 @ 0x5573cd31dbc0] coded y,uvDC,uvAC intra: 83.6% 33.2% 2.3% inter: 41.1% 12.7% 0.3%\n",
      "[libx264 @ 0x5573cd31dbc0] i16 v,h,dc,p: 44% 26% 13% 17%\n",
      "[libx264 @ 0x5573cd31dbc0] i8 v,h,dc,ddl,ddr,vr,hd,vl,hu: 12% 11% 36%  6%  7%  6%  7%  7%  9%\n",
      "[libx264 @ 0x5573cd31dbc0] i4 v,h,dc,ddl,ddr,vr,hd,vl,hu: 17% 14% 21%  8%  9%  8%  8%  8%  8%\n",
      "[libx264 @ 0x5573cd31dbc0] i8c dc,h,v,p: 67% 16% 14%  2%\n",
      "[libx264 @ 0x5573cd31dbc0] Weighted P-Frames: Y:0.0% UV:0.0%\n",
      "[libx264 @ 0x5573cd31dbc0] ref P L0: 47.8% 12.0% 25.2% 15.0%\n",
      "[libx264 @ 0x5573cd31dbc0] ref B L0: 87.5%  8.8%  3.7%\n",
      "[libx264 @ 0x5573cd31dbc0] ref B L1: 95.2%  4.8%\n",
      "[libx264 @ 0x5573cd31dbc0] kb/s:16481.74\n"
     ]
    }
   ],
   "source": [
    "import ffmpeg\n",
    "import os\n",
    "\n",
    "def process_video(input_video_path, output_video_path_prefix):\n",
    "    # Get the video duration using ffprobe\n",
    "    probe = ffmpeg.probe(input_video_path, v='error', select_streams='v:0', show_entries='format=duration')\n",
    "    duration = float(probe['format']['duration'])\n",
    "\n",
    "    if duration >= 2.976044:\n",
    "        # Trim the video to the first 2.976044 seconds\n",
    "        first_video = ffmpeg.input(input_video_path, t=2.976044)\n",
    "\n",
    "        # Create a silent audio stream for the first video\n",
    "        silent_audio = ffmpeg.input('anullsrc=r=44100:cl=stereo', t=2.976044, f='lavfi')\n",
    "\n",
    "        # Concatenate the first video and silent audio\n",
    "        first_video = ffmpeg.concat(first_video, silent_audio, v=1, a=1)\n",
    "\n",
    "        # Save the first 2.976044 seconds as the first video\n",
    "        first_output_path = output_video_path_prefix + \"_first.mp4\"\n",
    "        first_video.output(first_output_path).run(overwrite_output=True)\n",
    "\n",
    "        # Calculate the remaining duration\n",
    "        remaining_duration = duration - 2.976044\n",
    "\n",
    "        if remaining_duration > 0:\n",
    "            # Trim the remaining part of the video\n",
    "            second_video = ffmpeg.input(input_video_path, ss=2.976044, t=remaining_duration)\n",
    "\n",
    "            # Create a silent audio stream for the second video\n",
    "            silent_audio = ffmpeg.input('anullsrc=r=44100:cl=stereo', t=remaining_duration, f='lavfi')\n",
    "\n",
    "            # Concatenate the second video and silent audio\n",
    "            second_video = ffmpeg.concat(second_video, silent_audio, v=1, a=1)\n",
    "\n",
    "            # Save the remaining duration as the second video\n",
    "            second_output_path = output_video_path_prefix + \"_second.mp4\"\n",
    "            second_video.output(second_output_path).run(overwrite_output=True)\n",
    "    else:\n",
    "        # Calculate the duration to pad\n",
    "        padding_duration = 2.976044 - duration\n",
    "\n",
    "        # Create a padding video with a black screen\n",
    "        padding = (\n",
    "            ffmpeg.input('anullsrc=r=44100:cl=stereo', t=padding_duration, f='lavfi')  # Silent audio\n",
    "            .output('color=c=black:s=1280x720:r=25:d=' + str(padding_duration), f='lavfi')  # Black screen video\n",
    "            .compile()\n",
    "        )\n",
    "\n",
    "        # Concatenate the input video and padding video\n",
    "        input_video = ffmpeg.input(input_video_path)\n",
    "        final_video = ffmpeg.concat(input_video, padding, v=1, a=1)\n",
    "\n",
    "        # Save the video with padding\n",
    "        final_output_path = output_video_path_prefix + \"_padded.mp4\"\n",
    "        final_video.output(final_output_path).run(overwrite_output=True)\n",
    "\n",
    "# Example usage\n",
    "input_video_path = 'origVid.mp4'\n",
    "output_video_path = 'output.mp4'\n",
    "process_video(input_video_path, output_video_path)\n",
    "\n",
    "\n",
    "\n"
   ]
  },
  {
   "cell_type": "code",
   "execution_count": 9,
   "metadata": {},
   "outputs": [
    {
     "name": "stdout",
     "output_type": "stream",
     "text": [
      "The duration of the video is: 3.018 seconds\n"
     ]
    }
   ],
   "source": [
    "import subprocess\n",
    "import os\n",
    "def get_video_duration(video_path):\n",
    "    command = ['ffprobe', '-i', video_path, '-show_entries', 'format=duration', '-v', 'quiet', '-of', 'csv=p=0']\n",
    "    result = subprocess.run(command, stdout=subprocess.PIPE, stderr=subprocess.PIPE, text=True)\n",
    "    \n",
    "    if result.returncode == 0:\n",
    "        duration = float(result.stdout.strip())\n",
    "        return duration\n",
    "    else:\n",
    "        print('Error:', result.stderr)\n",
    "        return None\n",
    "\n",
    "video_path = os.path.join('output.mp4_first.mp4')  # Replace with your video file path\n",
    "duration = get_video_duration(video_path)\n",
    "\n",
    "if duration is not None:\n",
    "    print(f'The duration of the video is: {duration} seconds')"
   ]
  }
 ],
 "metadata": {
  "kernelspec": {
   "display_name": "tf",
   "language": "python",
   "name": "python3"
  },
  "language_info": {
   "codemirror_mode": {
    "name": "ipython",
    "version": 3
   },
   "file_extension": ".py",
   "mimetype": "text/x-python",
   "name": "python",
   "nbconvert_exporter": "python",
   "pygments_lexer": "ipython3",
   "version": "3.10.13"
  }
 },
 "nbformat": 4,
 "nbformat_minor": 2
}
